<svg xmlns="http://www.w3.org/2000/svg" viewBox="0 0 640.5 640.5">
  <defs>
    <style>
      .cls-1 {
        opacity: 0.5;
      }

      .cls-2, .cls-3 {
        fill: none;
        stroke: #b3b3b3;
        stroke-miterlimit: 10;
        stroke-width: 0.5px;
      }

      .cls-3 {
        opacity: 0.3;
      }

      .cls-4 {
        opacity: 0.1;
      }
    </style>
  </defs>
  <title>background-ticks</title>
  <g id="Layer_2" data-name="Layer 2" class="cls-1">
    <line class="cls-2" x1="320.25" x2="320.25" y2="100.98"/>
    <line class="cls-2" x1="546.7" y1="93.8" x2="475.3" y2="165.2"/>
    <line class="cls-2" x1="640.5" y1="320.25" x2="539.53" y2="320.25"/>
    <line class="cls-2" x1="546.7" y1="546.7" x2="475.3" y2="475.3"/>
    <line class="cls-2" x1="320.25" y1="640.5" x2="320.25" y2="539.53"/>
    <line class="cls-2" x1="93.8" y1="546.7" x2="165.2" y2="475.3"/>
    <line class="cls-2" y1="320.25" x2="100.98" y2="320.25"/>
    <line class="cls-2" x1="93.8" y1="93.8" x2="165.2" y2="165.2"/>
    <circle class="cls-3" cx="320.25" cy="320.25" r="155.94"/>
  </g>
  <g id="Layer_2_copy" data-name="Layer 2 copy" class="cls-4">
    <line class="cls-2" x1="357.59" y1="2.18" x2="345.82" y2="102.47"/>
    <line class="cls-2" x1="571.56" y1="121.75" x2="492.32" y2="184.34"/>
    <line class="cls-2" x1="638.32" y1="357.59" x2="538.03" y2="345.82"/>
    <line class="cls-2" x1="518.76" y1="571.56" x2="456.17" y2="492.32"/>
    <line class="cls-2" x1="282.91" y1="638.32" x2="294.69" y2="538.03"/>
    <line class="cls-2" x1="68.94" y1="518.76" x2="148.18" y2="456.17"/>
    <line class="cls-2" x1="2.18" y1="282.91" x2="102.47" y2="294.69"/>
    <line class="cls-2" x1="121.75" y1="68.94" x2="184.34" y2="148.18"/>
    <circle class="cls-2" cx="406.81" cy="400" r="20.12" transform="translate(-124.45 677.66) rotate(-83.3)"/>
  </g>
</svg>
