<svg id="Layer_1" data-name="Layer 1" xmlns="http://www.w3.org/2000/svg" viewBox="0 0 621.68 611.09">
  <defs>
    <style>
      .cls-1 {
        opacity: 0.05;
      }

      .cls-2 {
        fill: #ccc;
      }

      .cls-3 {
        opacity: 0.15;
      }

      .cls-4 {
        opacity: 0.2;
      }

      .cls-5 {
        opacity: 0.1;
      }
    </style>
  </defs>
  <title>background</title>
  <g class="cls-1">
    <path class="cls-2" d="M500.49,572.9l33.37,57.41A266.47,266.47,0,0,0,643.17,508.64l-60.61-27.08A200.05,200.05,0,0,1,500.49,572.9Z" transform="translate(-89.16 -99.75)"/>
  </g>
  <g class="cls-3">
    <path class="cls-2" d="M349.71,524L333,565.22a178.34,178.34,0,0,0,109.18,8L431.68,530A133.89,133.89,0,0,1,349.71,524Z" transform="translate(-89.16 -99.75)"/>
    <path class="cls-2" d="M293.27,319.27a134.64,134.64,0,0,1,15.8-17.48l-30.19-32.61a179.65,179.65,0,0,0-41.18,57l40.46,18.39A134.26,134.26,0,0,1,293.27,319.27Z" transform="translate(-89.16 -99.75)"/>
    <path class="cls-2" d="M356.75,227.07l10.78,43.1a133.56,133.56,0,0,1,113.2,23.1l26.8-35.44A177.91,177.91,0,0,0,356.75,227.07Z" transform="translate(-89.16 -99.75)"/>
  </g>
  <g class="cls-4">
    <path class="cls-2" d="M313.51,297.85L284.8,263.93a178.34,178.34,0,0,0-57.77,93l43.11,10.74A133.89,133.89,0,0,1,313.51,297.85Z" transform="translate(-89.16 -99.75)"/>
    <path class="cls-2" d="M521.07,343a134.64,134.64,0,0,1,8.14,22.11l42.9-11.59a179.65,179.65,0,0,0-31.39-63l-35.08,27.29A134.26,134.26,0,0,1,521.07,343Z" transform="translate(-89.16 -99.75)"/>
    <path class="cls-2" d="M573.23,442l-43.18-10.48a133.56,133.56,0,0,1-73,89.52l18.93,40.2A177.91,177.91,0,0,0,573.23,442Z" transform="translate(-89.16 -99.75)"/>
  </g>
  <g class="cls-5">
    <path class="cls-2" d="M471.94,405.88l23.89,2a96.18,96.18,0,0,0-13.5-57.47l-20.52,12.37A72.21,72.21,0,0,1,471.94,405.88Z" transform="translate(-89.16 -99.75)"/>
    <path class="cls-2" d="M375.66,467.94a72.61,72.61,0,0,1-11.54-5.31l-11.91,20.8a96.89,96.89,0,0,0,36,12l2.94-23.79A72.41,72.41,0,0,1,375.66,467.94Z" transform="translate(-89.16 -99.75)"/>
    <path class="cls-2" d="M318,450.14l20.45-12.5a72,72,0,0,1-6.36-62l-22.56-8.08A96,96,0,0,0,318,450.14Z" transform="translate(-89.16 -99.75)"/>
  </g>
  <g class="cls-5">
    <path class="cls-2" d="M625.41,339.45l74.84-20.1A311,311,0,0,0,596.47,159.13l-49,60A233.48,233.48,0,0,1,625.41,339.45Z" transform="translate(-89.16 -99.75)"/>
    <path class="cls-2" d="M400,633.36a234.78,234.78,0,0,1-40.92-3.58l-13.59,76.29a313.28,313.28,0,0,0,122.65-2.74l-17-75.61A234.12,234.12,0,0,1,400,633.36Z" transform="translate(-89.16 -99.75)"/>
    <path class="cls-2" d="M205,642.07l48.61-60.34a232.9,232.9,0,0,1-87-181.73H89.16A310.23,310.23,0,0,0,205,642.07Z" transform="translate(-89.16 -99.75)"/>
  </g>
  <g class="cls-4">
    <path class="cls-2" d="M339.45,174.59l-20.1-74.84A311,311,0,0,0,159.13,203.53l60,49A233.48,233.48,0,0,1,339.45,174.59Z" transform="translate(-89.16 -99.75)"/>
    <path class="cls-2" d="M633.36,400a234.78,234.78,0,0,1-3.58,40.92l76.29,13.59a313.28,313.28,0,0,0-2.74-122.65l-75.61,17A234.12,234.12,0,0,1,633.36,400Z" transform="translate(-89.16 -99.75)"/>
  </g>
</svg>
